<svg xmlns="http://www.w3.org/2000/svg" viewBox="0 0 1200 600" width="1200" height="600" font-family="-apple-system,Segoe UI,Helvetica,Arial,sans-serif">
<defs>
 <linearGradient id="cap" x1="0" y1="0" x2="0" y2="1"><stop offset="0" stop-color="#2A2D38"/><stop offset="0.5" stop-color="#191B22"/><stop offset="1" stop-color="#101218"/></linearGradient>
 <linearGradient id="capMod" x1="0" y1="0" x2="0" y2="1"><stop offset="0" stop-color="#23202B"/><stop offset="1" stop-color="#0F0E16"/></linearGradient>
 <linearGradient id="capSel" x1="0" y1="0" x2="0" y2="1"><stop offset="0" stop-color="#1B3A44"/><stop offset="1" stop-color="#0E2630"/></linearGradient>
 <linearGradient id="accent" x1="0" y1="0" x2="1" y2="0"><stop offset="0" stop-color="#21D4D9"/><stop offset="1" stop-color="#0E8F93"/></linearGradient>
 <linearGradient id="hue" x1="0" y1="0" x2="1" y2="0"><stop offset="0" stop-color="#ff4d4d"/><stop offset="0.33" stop-color="#39e639"/><stop offset="0.66" stop-color="#21D4D9"/><stop offset="1" stop-color="#b36bff"/></linearGradient>
 <radialGradient id="vig" cx="50%" cy="0%" r="90%"><stop offset="0" stop-color="#14161D"/><stop offset="1" stop-color="#0A0B0F"/></radialGradient>
 <filter id="glow" x="-60%" y="-60%" width="220%" height="220%"><feGaussianBlur stdDeviation="5" result="b"/><feMerge><feMergeNode in="b"/><feMergeNode in="SourceGraphic"/></feMerge></filter>
 <filter id="wsh" x="-20%" y="-20%" width="140%" height="140%"><feDropShadow dx="0" dy="10" stdDeviation="22" flood-color="#000" flood-opacity="0.55"/></filter>
</defs>
<rect width="1200" height="600" fill="#05060a"/>
<g filter="url(#wsh)">
 <rect x="8" y="8" width="1184" height="584" rx="14" fill="#0A0B0F" stroke="#23262F"/>
 <rect x="216" y="38" width="976" height="546" fill="url(#vig)"/>
 <circle cx="32" cy="27.0" r="6" fill="#ff5f57"/><circle cx="52" cy="27.0" r="6" fill="#febc2e"/><circle cx="72" cy="27.0" r="6" fill="#28c840"/>
 <text x="600.0" y="31.0" font-size="13" fill="#8A90A0" text-anchor="middle">Keychron V1 Max</text>
 <rect x="8" y="38" width="208" height="554" fill="#14161D"/>
 <rect x="215.5" y="38" width="0.5" height="554" fill="#23262F"/>
 <text x="30" y="72" font-size="11" fill="#E8EAF0" font-weight="700" letter-spacing="1.5">KEYCHRON</text>
 <text x="30" y="88" font-size="11" fill="#8A90A0">V1 Max</text>
 <rect x="16" y="90" width="192" height="34" rx="7" fill="url(#accent)"/><text x="42" y="112" font-size="13" fill="#0A0B0F" font-weight="600">Keymap</text><text x="42" y="150" font-size="13" fill="#8A90A0">Macros</text><text x="42" y="188" font-size="13" fill="#8A90A0">Lighting</text>
 <rect x="16" y="508" width="192" height="60" rx="8" fill="#1A1C24" stroke="#23262F"/>
 <circle cx="34" cy="534" r="5" fill="#5CE0A0"/>
 <text x="48" y="534" font-size="11" fill="#E8EAF0" font-weight="600">Connected</text>
 <text x="48" y="550" font-size="10" fill="#8A90A0" font-family="ui-monospace,Menlo,monospace">95% · 4.06V · charging</text>
 <rect x="234" y="60" width="3" height="18" rx="1.5" fill="#21D4D9"/>
 <text x="246" y="75" font-size="16" fill="#E8EAF0" font-weight="600">Keymap</text>
 <text x="1170" y="75" font-size="11" fill="#8A90A0" text-anchor="end" font-family="ui-monospace,Menlo,monospace">Cable — charging 95% · 4.06V</text>
 <rect x="216" y="90" width="976" height="0.5" fill="#23262F"/>
 <rect x="234.0" y="148.0" width="36.0" height="36" rx="7" fill="url(#cap)" stroke="#ffffff" stroke-opacity="0.12" stroke-width="0.7" />
<text x="252.0" y="170.0" font-size="8.5" fill="#C7CBD6" text-anchor="middle" font-weight="500">esc</text>
<rect x="274.0" y="148.0" width="36.0" height="36" rx="7" fill="url(#cap)" stroke="#ffffff" stroke-opacity="0.12" stroke-width="0.7" />
<text x="292.0" y="170.0" font-size="12" fill="#C7CBD6" text-anchor="middle" font-weight="500">F1</text>
<rect x="314.0" y="148.0" width="36.0" height="36" rx="7" fill="url(#cap)" stroke="#ffffff" stroke-opacity="0.12" stroke-width="0.7" />
<text x="332.0" y="170.0" font-size="12" fill="#C7CBD6" text-anchor="middle" font-weight="500">F2</text>
<rect x="354.0" y="148.0" width="36.0" height="36" rx="7" fill="url(#cap)" stroke="#ffffff" stroke-opacity="0.12" stroke-width="0.7" />
<text x="372.0" y="170.0" font-size="12" fill="#C7CBD6" text-anchor="middle" font-weight="500">F3</text>
<rect x="394.0" y="148.0" width="36.0" height="36" rx="7" fill="url(#cap)" stroke="#ffffff" stroke-opacity="0.12" stroke-width="0.7" />
<text x="412.0" y="170.0" font-size="12" fill="#C7CBD6" text-anchor="middle" font-weight="500">F4</text>
<rect x="434.0" y="148.0" width="36.0" height="36" rx="7" fill="url(#cap)" stroke="#ffffff" stroke-opacity="0.12" stroke-width="0.7" />
<text x="452.0" y="170.0" font-size="12" fill="#C7CBD6" text-anchor="middle" font-weight="500">F5</text>
<rect x="474.0" y="148.0" width="36.0" height="36" rx="7" fill="url(#cap)" stroke="#ffffff" stroke-opacity="0.12" stroke-width="0.7" />
<text x="492.0" y="170.0" font-size="12" fill="#C7CBD6" text-anchor="middle" font-weight="500">F6</text>
<rect x="514.0" y="148.0" width="36.0" height="36" rx="7" fill="url(#cap)" stroke="#ffffff" stroke-opacity="0.12" stroke-width="0.7" />
<text x="532.0" y="170.0" font-size="12" fill="#C7CBD6" text-anchor="middle" font-weight="500">F7</text>
<rect x="554.0" y="148.0" width="36.0" height="36" rx="7" fill="url(#cap)" stroke="#ffffff" stroke-opacity="0.12" stroke-width="0.7" />
<text x="572.0" y="170.0" font-size="12" fill="#C7CBD6" text-anchor="middle" font-weight="500">F8</text>
<rect x="594.0" y="148.0" width="36.0" height="36" rx="7" fill="url(#cap)" stroke="#ffffff" stroke-opacity="0.12" stroke-width="0.7" />
<text x="612.0" y="170.0" font-size="12" fill="#C7CBD6" text-anchor="middle" font-weight="500">F9</text>
<rect x="634.0" y="148.0" width="36.0" height="36" rx="7" fill="url(#cap)" stroke="#ffffff" stroke-opacity="0.12" stroke-width="0.7" />
<text x="652.0" y="170.0" font-size="8.5" fill="#C7CBD6" text-anchor="middle" font-weight="500">F10</text>
<rect x="674.0" y="148.0" width="36.0" height="36" rx="7" fill="url(#cap)" stroke="#ffffff" stroke-opacity="0.12" stroke-width="0.7" />
<text x="692.0" y="170.0" font-size="8.5" fill="#C7CBD6" text-anchor="middle" font-weight="500">F11</text>
<rect x="714.0" y="148.0" width="36.0" height="36" rx="7" fill="url(#cap)" stroke="#ffffff" stroke-opacity="0.12" stroke-width="0.7" />
<text x="732.0" y="170.0" font-size="8.5" fill="#C7CBD6" text-anchor="middle" font-weight="500">F12</text>
<rect x="754.0" y="148.0" width="36.0" height="36" rx="7" fill="url(#cap)" stroke="#ffffff" stroke-opacity="0.12" stroke-width="0.7" />
<text x="772.0" y="170.0" font-size="12" fill="#C7CBD6" text-anchor="middle" font-weight="500">◉</text>
<rect x="234.0" y="188.0" width="36.0" height="36" rx="7" fill="url(#cap)" stroke="#ffffff" stroke-opacity="0.12" stroke-width="0.7" />
<text x="252.0" y="210.0" font-size="12" fill="#C7CBD6" text-anchor="middle" font-weight="500">`</text>
<rect x="274.0" y="188.0" width="36.0" height="36" rx="7" fill="url(#cap)" stroke="#ffffff" stroke-opacity="0.12" stroke-width="0.7" />
<text x="292.0" y="210.0" font-size="12" fill="#C7CBD6" text-anchor="middle" font-weight="500">1</text>
<rect x="314.0" y="188.0" width="36.0" height="36" rx="7" fill="url(#cap)" stroke="#ffffff" stroke-opacity="0.12" stroke-width="0.7" />
<text x="332.0" y="210.0" font-size="12" fill="#C7CBD6" text-anchor="middle" font-weight="500">2</text>
<rect x="354.0" y="188.0" width="36.0" height="36" rx="7" fill="url(#cap)" stroke="#ffffff" stroke-opacity="0.12" stroke-width="0.7" />
<text x="372.0" y="210.0" font-size="12" fill="#C7CBD6" text-anchor="middle" font-weight="500">3</text>
<rect x="394.0" y="188.0" width="36.0" height="36" rx="7" fill="url(#cap)" stroke="#ffffff" stroke-opacity="0.12" stroke-width="0.7" />
<text x="412.0" y="210.0" font-size="12" fill="#C7CBD6" text-anchor="middle" font-weight="500">4</text>
<rect x="434.0" y="188.0" width="36.0" height="36" rx="7" fill="url(#cap)" stroke="#ffffff" stroke-opacity="0.12" stroke-width="0.7" />
<text x="452.0" y="210.0" font-size="12" fill="#C7CBD6" text-anchor="middle" font-weight="500">5</text>
<rect x="474.0" y="188.0" width="36.0" height="36" rx="7" fill="url(#cap)" stroke="#ffffff" stroke-opacity="0.12" stroke-width="0.7" />
<text x="492.0" y="210.0" font-size="12" fill="#C7CBD6" text-anchor="middle" font-weight="500">6</text>
<rect x="514.0" y="188.0" width="36.0" height="36" rx="7" fill="url(#cap)" stroke="#ffffff" stroke-opacity="0.12" stroke-width="0.7" />
<text x="532.0" y="210.0" font-size="12" fill="#C7CBD6" text-anchor="middle" font-weight="500">7</text>
<rect x="554.0" y="188.0" width="36.0" height="36" rx="7" fill="url(#cap)" stroke="#ffffff" stroke-opacity="0.12" stroke-width="0.7" />
<text x="572.0" y="210.0" font-size="12" fill="#C7CBD6" text-anchor="middle" font-weight="500">8</text>
<rect x="594.0" y="188.0" width="36.0" height="36" rx="7" fill="url(#cap)" stroke="#ffffff" stroke-opacity="0.12" stroke-width="0.7" />
<text x="612.0" y="210.0" font-size="12" fill="#C7CBD6" text-anchor="middle" font-weight="500">9</text>
<rect x="634.0" y="188.0" width="36.0" height="36" rx="7" fill="url(#cap)" stroke="#ffffff" stroke-opacity="0.12" stroke-width="0.7" />
<text x="652.0" y="210.0" font-size="12" fill="#C7CBD6" text-anchor="middle" font-weight="500">0</text>
<rect x="674.0" y="188.0" width="36.0" height="36" rx="7" fill="url(#cap)" stroke="#ffffff" stroke-opacity="0.12" stroke-width="0.7" />
<text x="692.0" y="210.0" font-size="12" fill="#C7CBD6" text-anchor="middle" font-weight="500">-</text>
<rect x="714.0" y="188.0" width="36.0" height="36" rx="7" fill="url(#cap)" stroke="#ffffff" stroke-opacity="0.12" stroke-width="0.7" />
<text x="732.0" y="210.0" font-size="12" fill="#C7CBD6" text-anchor="middle" font-weight="500">=</text>
<rect x="754.0" y="188.0" width="76.0" height="36" rx="7" fill="url(#capMod)" stroke="#926DDE" stroke-opacity="0.45" stroke-width="0.7" />
<text x="792.0" y="210.0" font-size="12" fill="#C7CBD6" text-anchor="middle" font-weight="500">⌫</text>
<rect x="834.0" y="188.0" width="36.0" height="36" rx="7" fill="url(#cap)" stroke="#ffffff" stroke-opacity="0.12" stroke-width="0.7" />
<text x="852.0" y="210.0" font-size="8.5" fill="#C7CBD6" text-anchor="middle" font-weight="500">PgUp</text>
<rect x="234.0" y="228.0" width="56.0" height="36" rx="7" fill="url(#capMod)" stroke="#926DDE" stroke-opacity="0.45" stroke-width="0.7" />
<text x="262.0" y="250.0" font-size="8.5" fill="#C7CBD6" text-anchor="middle" font-weight="500">Tab</text>
<rect x="294.0" y="228.0" width="36.0" height="36" rx="7" fill="url(#cap)" stroke="#ffffff" stroke-opacity="0.12" stroke-width="0.7" />
<text x="312.0" y="250.0" font-size="12" fill="#C7CBD6" text-anchor="middle" font-weight="500">Q</text>
<rect x="334.0" y="228.0" width="36.0" height="36" rx="7" fill="url(#cap)" stroke="#ffffff" stroke-opacity="0.12" stroke-width="0.7" />
<text x="352.0" y="250.0" font-size="12" fill="#C7CBD6" text-anchor="middle" font-weight="500">W</text>
<rect x="374.0" y="228.0" width="36.0" height="36" rx="7" fill="url(#capSel)" stroke="#21D4D9" stroke-opacity="1" stroke-width="1.4" filter="url(#glow)"/>
<text x="392.0" y="250.0" font-size="12" fill="#A6F4F7" text-anchor="middle" font-weight="600">E</text>
<rect x="414.0" y="228.0" width="36.0" height="36" rx="7" fill="url(#cap)" stroke="#ffffff" stroke-opacity="0.12" stroke-width="0.7" />
<text x="432.0" y="250.0" font-size="12" fill="#C7CBD6" text-anchor="middle" font-weight="500">R</text>
<rect x="454.0" y="228.0" width="36.0" height="36" rx="7" fill="url(#cap)" stroke="#ffffff" stroke-opacity="0.12" stroke-width="0.7" />
<text x="472.0" y="250.0" font-size="12" fill="#C7CBD6" text-anchor="middle" font-weight="500">T</text>
<rect x="494.0" y="228.0" width="36.0" height="36" rx="7" fill="url(#cap)" stroke="#ffffff" stroke-opacity="0.12" stroke-width="0.7" />
<text x="512.0" y="250.0" font-size="12" fill="#C7CBD6" text-anchor="middle" font-weight="500">Y</text>
<rect x="534.0" y="228.0" width="36.0" height="36" rx="7" fill="url(#cap)" stroke="#ffffff" stroke-opacity="0.12" stroke-width="0.7" />
<text x="552.0" y="250.0" font-size="12" fill="#C7CBD6" text-anchor="middle" font-weight="500">U</text>
<rect x="574.0" y="228.0" width="36.0" height="36" rx="7" fill="url(#cap)" stroke="#ffffff" stroke-opacity="0.12" stroke-width="0.7" />
<text x="592.0" y="250.0" font-size="12" fill="#C7CBD6" text-anchor="middle" font-weight="500">I</text>
<rect x="614.0" y="228.0" width="36.0" height="36" rx="7" fill="url(#cap)" stroke="#ffffff" stroke-opacity="0.12" stroke-width="0.7" />
<text x="632.0" y="250.0" font-size="12" fill="#C7CBD6" text-anchor="middle" font-weight="500">O</text>
<rect x="654.0" y="228.0" width="36.0" height="36" rx="7" fill="url(#cap)" stroke="#ffffff" stroke-opacity="0.12" stroke-width="0.7" />
<text x="672.0" y="250.0" font-size="12" fill="#C7CBD6" text-anchor="middle" font-weight="500">P</text>
<rect x="694.0" y="228.0" width="36.0" height="36" rx="7" fill="url(#cap)" stroke="#ffffff" stroke-opacity="0.12" stroke-width="0.7" />
<text x="712.0" y="250.0" font-size="12" fill="#C7CBD6" text-anchor="middle" font-weight="500">[</text>
<rect x="734.0" y="228.0" width="36.0" height="36" rx="7" fill="url(#cap)" stroke="#ffffff" stroke-opacity="0.12" stroke-width="0.7" />
<text x="752.0" y="250.0" font-size="12" fill="#C7CBD6" text-anchor="middle" font-weight="500">]</text>
<rect x="774.0" y="228.0" width="56.0" height="36" rx="7" fill="url(#cap)" stroke="#ffffff" stroke-opacity="0.12" stroke-width="0.7" />
<text x="802.0" y="250.0" font-size="12" fill="#C7CBD6" text-anchor="middle" font-weight="500">\</text>
<rect x="834.0" y="228.0" width="36.0" height="36" rx="7" fill="url(#cap)" stroke="#ffffff" stroke-opacity="0.12" stroke-width="0.7" />
<text x="852.0" y="250.0" font-size="8.5" fill="#C7CBD6" text-anchor="middle" font-weight="500">PgDn</text>
<rect x="234.0" y="268.0" width="66.0" height="36" rx="7" fill="url(#capMod)" stroke="#926DDE" stroke-opacity="0.45" stroke-width="0.7" />
<text x="267.0" y="290.0" font-size="8.5" fill="#C7CBD6" text-anchor="middle" font-weight="500">Caps</text>
<rect x="304.0" y="268.0" width="36.0" height="36" rx="7" fill="url(#cap)" stroke="#ffffff" stroke-opacity="0.12" stroke-width="0.7" />
<text x="322.0" y="290.0" font-size="12" fill="#C7CBD6" text-anchor="middle" font-weight="500">A</text>
<rect x="344.0" y="268.0" width="36.0" height="36" rx="7" fill="url(#cap)" stroke="#ffffff" stroke-opacity="0.12" stroke-width="0.7" />
<text x="362.0" y="290.0" font-size="12" fill="#C7CBD6" text-anchor="middle" font-weight="500">S</text>
<rect x="384.0" y="268.0" width="36.0" height="36" rx="7" fill="url(#cap)" stroke="#ffffff" stroke-opacity="0.12" stroke-width="0.7" />
<text x="402.0" y="290.0" font-size="12" fill="#C7CBD6" text-anchor="middle" font-weight="500">D</text>
<rect x="424.0" y="268.0" width="36.0" height="36" rx="7" fill="url(#cap)" stroke="#ffffff" stroke-opacity="0.12" stroke-width="0.7" />
<text x="442.0" y="290.0" font-size="12" fill="#C7CBD6" text-anchor="middle" font-weight="500">F</text>
<rect x="464.0" y="268.0" width="36.0" height="36" rx="7" fill="url(#cap)" stroke="#ffffff" stroke-opacity="0.12" stroke-width="0.7" />
<text x="482.0" y="290.0" font-size="12" fill="#C7CBD6" text-anchor="middle" font-weight="500">G</text>
<rect x="504.0" y="268.0" width="36.0" height="36" rx="7" fill="url(#cap)" stroke="#ffffff" stroke-opacity="0.12" stroke-width="0.7" />
<text x="522.0" y="290.0" font-size="12" fill="#C7CBD6" text-anchor="middle" font-weight="500">H</text>
<rect x="544.0" y="268.0" width="36.0" height="36" rx="7" fill="url(#cap)" stroke="#ffffff" stroke-opacity="0.12" stroke-width="0.7" />
<text x="562.0" y="290.0" font-size="12" fill="#C7CBD6" text-anchor="middle" font-weight="500">J</text>
<rect x="584.0" y="268.0" width="36.0" height="36" rx="7" fill="url(#cap)" stroke="#ffffff" stroke-opacity="0.12" stroke-width="0.7" />
<text x="602.0" y="290.0" font-size="12" fill="#C7CBD6" text-anchor="middle" font-weight="500">K</text>
<rect x="624.0" y="268.0" width="36.0" height="36" rx="7" fill="url(#cap)" stroke="#ffffff" stroke-opacity="0.12" stroke-width="0.7" />
<text x="642.0" y="290.0" font-size="12" fill="#C7CBD6" text-anchor="middle" font-weight="500">L</text>
<rect x="664.0" y="268.0" width="36.0" height="36" rx="7" fill="url(#cap)" stroke="#ffffff" stroke-opacity="0.12" stroke-width="0.7" />
<text x="682.0" y="290.0" font-size="12" fill="#C7CBD6" text-anchor="middle" font-weight="500">;</text>
<rect x="704.0" y="268.0" width="36.0" height="36" rx="7" fill="url(#cap)" stroke="#ffffff" stroke-opacity="0.12" stroke-width="0.7" />
<text x="722.0" y="290.0" font-size="12" fill="#C7CBD6" text-anchor="middle" font-weight="500">&#x27;</text>
<rect x="744.0" y="268.0" width="86.0" height="36" rx="7" fill="url(#capMod)" stroke="#926DDE" stroke-opacity="0.45" stroke-width="0.7" />
<text x="787.0" y="290.0" font-size="8.5" fill="#C7CBD6" text-anchor="middle" font-weight="500">Enter</text>
<rect x="834.0" y="268.0" width="36.0" height="36" rx="7" fill="url(#cap)" stroke="#ffffff" stroke-opacity="0.12" stroke-width="0.7" />
<text x="852.0" y="290.0" font-size="8.5" fill="#C7CBD6" text-anchor="middle" font-weight="500">Home</text>
<rect x="234.0" y="308.0" width="86.0" height="36" rx="7" fill="url(#capMod)" stroke="#926DDE" stroke-opacity="0.45" stroke-width="0.7" />
<text x="277.0" y="330.0" font-size="8.5" fill="#C7CBD6" text-anchor="middle" font-weight="500">Shift</text>
<rect x="324.0" y="308.0" width="36.0" height="36" rx="7" fill="url(#cap)" stroke="#ffffff" stroke-opacity="0.12" stroke-width="0.7" />
<text x="342.0" y="330.0" font-size="12" fill="#C7CBD6" text-anchor="middle" font-weight="500">Z</text>
<rect x="364.0" y="308.0" width="36.0" height="36" rx="7" fill="url(#cap)" stroke="#ffffff" stroke-opacity="0.12" stroke-width="0.7" />
<text x="382.0" y="330.0" font-size="12" fill="#C7CBD6" text-anchor="middle" font-weight="500">X</text>
<rect x="404.0" y="308.0" width="36.0" height="36" rx="7" fill="url(#cap)" stroke="#ffffff" stroke-opacity="0.12" stroke-width="0.7" />
<text x="422.0" y="330.0" font-size="12" fill="#C7CBD6" text-anchor="middle" font-weight="500">C</text>
<rect x="444.0" y="308.0" width="36.0" height="36" rx="7" fill="url(#cap)" stroke="#ffffff" stroke-opacity="0.12" stroke-width="0.7" />
<text x="462.0" y="330.0" font-size="12" fill="#C7CBD6" text-anchor="middle" font-weight="500">V</text>
<rect x="484.0" y="308.0" width="36.0" height="36" rx="7" fill="url(#cap)" stroke="#ffffff" stroke-opacity="0.12" stroke-width="0.7" />
<text x="502.0" y="330.0" font-size="12" fill="#C7CBD6" text-anchor="middle" font-weight="500">B</text>
<rect x="524.0" y="308.0" width="36.0" height="36" rx="7" fill="url(#cap)" stroke="#ffffff" stroke-opacity="0.12" stroke-width="0.7" />
<text x="542.0" y="330.0" font-size="12" fill="#C7CBD6" text-anchor="middle" font-weight="500">N</text>
<rect x="564.0" y="308.0" width="36.0" height="36" rx="7" fill="url(#cap)" stroke="#ffffff" stroke-opacity="0.12" stroke-width="0.7" />
<text x="582.0" y="330.0" font-size="12" fill="#C7CBD6" text-anchor="middle" font-weight="500">M</text>
<rect x="604.0" y="308.0" width="36.0" height="36" rx="7" fill="url(#cap)" stroke="#ffffff" stroke-opacity="0.12" stroke-width="0.7" />
<text x="622.0" y="330.0" font-size="12" fill="#C7CBD6" text-anchor="middle" font-weight="500">,</text>
<rect x="644.0" y="308.0" width="36.0" height="36" rx="7" fill="url(#cap)" stroke="#ffffff" stroke-opacity="0.12" stroke-width="0.7" />
<text x="662.0" y="330.0" font-size="12" fill="#C7CBD6" text-anchor="middle" font-weight="500">.</text>
<rect x="684.0" y="308.0" width="36.0" height="36" rx="7" fill="url(#cap)" stroke="#ffffff" stroke-opacity="0.12" stroke-width="0.7" />
<text x="702.0" y="330.0" font-size="12" fill="#C7CBD6" text-anchor="middle" font-weight="500">/</text>
<rect x="724.0" y="308.0" width="66.0" height="36" rx="7" fill="url(#capMod)" stroke="#926DDE" stroke-opacity="0.45" stroke-width="0.7" />
<text x="757.0" y="330.0" font-size="8.5" fill="#C7CBD6" text-anchor="middle" font-weight="500">Shift</text>
<rect x="794.0" y="308.0" width="36.0" height="36" rx="7" fill="url(#cap)" stroke="#ffffff" stroke-opacity="0.12" stroke-width="0.7" />
<text x="812.0" y="330.0" font-size="12" fill="#C7CBD6" text-anchor="middle" font-weight="500">↑</text>
<rect x="834.0" y="308.0" width="36.0" height="36" rx="7" fill="url(#cap)" stroke="#ffffff" stroke-opacity="0.12" stroke-width="0.7" />
<text x="852.0" y="330.0" font-size="8.5" fill="#C7CBD6" text-anchor="middle" font-weight="500">End</text>
<rect x="234.0" y="348.0" width="46.0" height="36" rx="7" fill="url(#capMod)" stroke="#926DDE" stroke-opacity="0.45" stroke-width="0.7" />
<text x="257.0" y="370.0" font-size="8.5" fill="#C7CBD6" text-anchor="middle" font-weight="500">Ctrl</text>
<rect x="284.0" y="348.0" width="46.0" height="36" rx="7" fill="url(#capMod)" stroke="#926DDE" stroke-opacity="0.45" stroke-width="0.7" />
<text x="307.0" y="370.0" font-size="8.5" fill="#C7CBD6" text-anchor="middle" font-weight="500">Opt</text>
<rect x="334.0" y="348.0" width="46.0" height="36" rx="7" fill="url(#capMod)" stroke="#926DDE" stroke-opacity="0.45" stroke-width="0.7" />
<text x="357.0" y="370.0" font-size="8.5" fill="#C7CBD6" text-anchor="middle" font-weight="500">Cmd</text>
<rect x="384.0" y="348.0" width="246.0" height="36" rx="7" fill="url(#cap)" stroke="#ffffff" stroke-opacity="0.12" stroke-width="0.7" />
<text x="507.0" y="370.0" font-size="8.5" fill="#C7CBD6" text-anchor="middle" font-weight="500">Space</text>
<rect x="634.0" y="348.0" width="36.0" height="36" rx="7" fill="url(#capMod)" stroke="#926DDE" stroke-opacity="0.45" stroke-width="0.7" />
<text x="652.0" y="370.0" font-size="8.5" fill="#C7CBD6" text-anchor="middle" font-weight="500">Cmd</text>
<rect x="674.0" y="348.0" width="36.0" height="36" rx="7" fill="url(#capMod)" stroke="#926DDE" stroke-opacity="0.45" stroke-width="0.7" />
<text x="692.0" y="370.0" font-size="12" fill="#C7CBD6" text-anchor="middle" font-weight="500">Fn</text>
<rect x="714.0" y="348.0" width="36.0" height="36" rx="7" fill="url(#cap)" stroke="#ffffff" stroke-opacity="0.12" stroke-width="0.7" />
<text x="732.0" y="370.0" font-size="12" fill="#C7CBD6" text-anchor="middle" font-weight="500">←</text>
<rect x="754.0" y="348.0" width="36.0" height="36" rx="7" fill="url(#cap)" stroke="#ffffff" stroke-opacity="0.12" stroke-width="0.7" />
<text x="772.0" y="370.0" font-size="12" fill="#C7CBD6" text-anchor="middle" font-weight="500">↓</text>
<rect x="794.0" y="348.0" width="36.0" height="36" rx="7" fill="url(#cap)" stroke="#ffffff" stroke-opacity="0.12" stroke-width="0.7" />
<text x="812.0" y="370.0" font-size="12" fill="#C7CBD6" text-anchor="middle" font-weight="500">→</text>
<rect x="234" y="104" width="150" height="26" rx="6" fill="#1A1C24" stroke="#23262F"/>
<rect x="236" y="106" width="36" height="22" rx="5" fill="url(#accent)"/>
<text x="254" y="121" font-size="11" fill="#0A0B0F" text-anchor="middle" font-weight="600">L0</text>
<text x="291" y="121" font-size="11" fill="#8A90A0" text-anchor="middle" font-weight="400">L1</text>
<text x="328" y="121" font-size="11" fill="#8A90A0" text-anchor="middle" font-weight="400">L2</text>
<text x="365" y="121" font-size="11" fill="#8A90A0" text-anchor="middle" font-weight="400">L3</text>
<rect x="934" y="91" width="258" height="501" fill="#14161D"/>
<rect x="934" y="91" width="0.5" height="501" fill="#23262F"/>
<text x="950" y="126" font-size="14" fill="#E8EAF0" font-weight="600">E</text>
<text x="950" y="142" font-size="10" fill="#8A90A0" font-family="ui-monospace,Menlo,monospace">L0 · 2,3 · now KC_E</text>
<rect x="950" y="156" width="224" height="26" rx="6" fill="#1A1C24" stroke="#23262F"/><text x="960" y="173" font-size="11" fill="#8A90A0">Search…</text>
<text x="950" y="206" font-size="10" fill="#8A90A0" font-weight="700" letter-spacing="1">KEYCODES</text>
<rect x="950" y="220" width="224" height="26" rx="5" fill="#1A1C24" stroke="#23262F" stroke-width="0.5"/><text x="960" y="237" font-size="11" fill="#E8EAF0" font-family="ui-monospace,Menlo,monospace">KC_A</text>
<rect x="950" y="250" width="224" height="26" rx="5" fill="#1A1C24" stroke="#23262F" stroke-width="0.5"/><text x="960" y="267" font-size="11" fill="#E8EAF0" font-family="ui-monospace,Menlo,monospace">KC_B</text>
<rect x="950" y="280" width="224" height="26" rx="5" fill="#1A1C24" stroke="#23262F" stroke-width="0.5"/><text x="960" y="297" font-size="11" fill="#E8EAF0" font-family="ui-monospace,Menlo,monospace">KC_C</text>
<rect x="950" y="310" width="224" height="26" rx="5" fill="#1A1C24" stroke="#23262F" stroke-width="0.5"/><text x="960" y="327" font-size="11" fill="#E8EAF0" font-family="ui-monospace,Menlo,monospace">KC_ESC</text>
<rect x="950" y="340" width="224" height="26" rx="5" fill="#1A1C24" stroke="#23262F" stroke-width="0.5"/><text x="960" y="357" font-size="11" fill="#E8EAF0" font-family="ui-monospace,Menlo,monospace">KC_TAB</text>
<rect x="950" y="370" width="224" height="26" rx="5" fill="#1A1C24" stroke="#23262F" stroke-width="0.5"/><text x="960" y="387" font-size="11" fill="#E8EAF0" font-family="ui-monospace,Menlo,monospace">MO(1)</text>
<rect x="950" y="400" width="224" height="26" rx="5" fill="#1A1C24" stroke="#23262F" stroke-width="0.5"/><text x="960" y="417" font-size="11" fill="#E8EAF0" font-family="ui-monospace,Menlo,monospace">TG(1)</text>
<rect x="950" y="430" width="224" height="26" rx="5" fill="#1A1C24" stroke="#23262F" stroke-width="0.5"/><text x="960" y="447" font-size="11" fill="#E8EAF0" font-family="ui-monospace,Menlo,monospace">KC_LSFT</text>
<rect x="950" y="460" width="224" height="26" rx="5" fill="#1A1C24" stroke="#23262F" stroke-width="0.5"/><text x="960" y="477" font-size="11" fill="#E8EAF0" font-family="ui-monospace,Menlo,monospace">KC_ENT</text>
<rect x="950" y="490" width="224" height="26" rx="5" fill="#1A1C24" stroke="#23262F" stroke-width="0.5"/><text x="960" y="507" font-size="11" fill="#E8EAF0" font-family="ui-monospace,Menlo,monospace">KC_SPC</text>
</g>
</svg>