<svg xmlns="http://www.w3.org/2000/svg" viewBox="0 0 1200 600" width="1200" height="600" font-family="-apple-system,Segoe UI,Helvetica,Arial,sans-serif">
<defs>
 <linearGradient id="cap" x1="0" y1="0" x2="0" y2="1"><stop offset="0" stop-color="#2A2D38"/><stop offset="0.5" stop-color="#191B22"/><stop offset="1" stop-color="#101218"/></linearGradient>
 <linearGradient id="capMod" x1="0" y1="0" x2="0" y2="1"><stop offset="0" stop-color="#23202B"/><stop offset="1" stop-color="#0F0E16"/></linearGradient>
 <linearGradient id="capSel" x1="0" y1="0" x2="0" y2="1"><stop offset="0" stop-color="#1B3A44"/><stop offset="1" stop-color="#0E2630"/></linearGradient>
 <linearGradient id="accent" x1="0" y1="0" x2="1" y2="0"><stop offset="0" stop-color="#21D4D9"/><stop offset="1" stop-color="#0E8F93"/></linearGradient>
 <linearGradient id="hue" x1="0" y1="0" x2="1" y2="0"><stop offset="0" stop-color="#ff4d4d"/><stop offset="0.33" stop-color="#39e639"/><stop offset="0.66" stop-color="#21D4D9"/><stop offset="1" stop-color="#b36bff"/></linearGradient>
 <radialGradient id="vig" cx="50%" cy="0%" r="90%"><stop offset="0" stop-color="#14161D"/><stop offset="1" stop-color="#0A0B0F"/></radialGradient>
 <filter id="glow" x="-60%" y="-60%" width="220%" height="220%"><feGaussianBlur stdDeviation="5" result="b"/><feMerge><feMergeNode in="b"/><feMergeNode in="SourceGraphic"/></feMerge></filter>
 <filter id="wsh" x="-20%" y="-20%" width="140%" height="140%"><feDropShadow dx="0" dy="10" stdDeviation="22" flood-color="#000" flood-opacity="0.55"/></filter>
</defs>
<rect width="1200" height="600" fill="#05060a"/>
<g filter="url(#wsh)">
 <rect x="8" y="8" width="1184" height="584" rx="14" fill="#0A0B0F" stroke="#23262F"/>
 <rect x="216" y="38" width="976" height="546" fill="url(#vig)"/>
 <circle cx="32" cy="27.0" r="6" fill="#ff5f57"/><circle cx="52" cy="27.0" r="6" fill="#febc2e"/><circle cx="72" cy="27.0" r="6" fill="#28c840"/>
 <text x="600.0" y="31.0" font-size="13" fill="#8A90A0" text-anchor="middle">Keychron V1 Max</text>
 <rect x="8" y="38" width="208" height="554" fill="#14161D"/>
 <rect x="215.5" y="38" width="0.5" height="554" fill="#23262F"/>
 <text x="30" y="72" font-size="11" fill="#E8EAF0" font-weight="700" letter-spacing="1.5">KEYCHRON</text>
 <text x="30" y="88" font-size="11" fill="#8A90A0">V1 Max</text>
 <text x="42" y="112" font-size="13" fill="#8A90A0">Keymap</text><text x="42" y="150" font-size="13" fill="#8A90A0">Macros</text><rect x="16" y="166" width="192" height="34" rx="7" fill="url(#accent)"/><text x="42" y="188" font-size="13" fill="#0A0B0F" font-weight="600">Lighting</text>
 <rect x="16" y="508" width="192" height="60" rx="8" fill="#1A1C24" stroke="#23262F"/>
 <circle cx="34" cy="534" r="5" fill="#5CE0A0"/>
 <text x="48" y="534" font-size="11" fill="#E8EAF0" font-weight="600">Connected</text>
 <text x="48" y="550" font-size="10" fill="#8A90A0" font-family="ui-monospace,Menlo,monospace">95% · 4.06V · charging</text>
 <rect x="234" y="60" width="3" height="18" rx="1.5" fill="#21D4D9"/>
 <text x="246" y="75" font-size="16" fill="#E8EAF0" font-weight="600">Lighting</text>
 <text x="1170" y="75" font-size="11" fill="#8A90A0" text-anchor="end" font-family="ui-monospace,Menlo,monospace">RGB matrix · live</text>
 <rect x="216" y="90" width="976" height="0.5" fill="#23262F"/>
 <text x="234" y="110" font-size="10" fill="#8A90A0" font-weight="700" letter-spacing="1">EFFECT</text>
<rect x="234" y="120" width="936" height="44" rx="10" fill="#14161D" stroke="#23262F"/>
<text x="250" y="147" font-size="12" fill="#E8EAF0">Animation</text>
<rect x="970" y="130" width="184" height="24" rx="6" fill="#1A1C24" stroke="#23262F"/>
<text x="980" y="147" font-size="12" fill="#E8EAF0">Solid Color</text>
<text x="1140" y="147" font-size="11" fill="#8A90A0">⌄</text>
<text x="234" y="184" font-size="10" fill="#8A90A0" font-weight="700" letter-spacing="1">BRIGHTNESS / SPEED</text>
<rect x="234" y="194" width="936" height="76" rx="10" fill="#14161D" stroke="#23262F"/>
<text x="250" y="222" font-size="12" fill="#E8EAF0">Brightness</text>
<rect x="354" y="218" width="746" height="4" rx="2" fill="#23262F"/>
<rect x="354" y="218" width="597" height="4" rx="2" fill="#21D4D9"/>
<circle cx="951" cy="220" r="7" fill="#E8EAF0" stroke="#21D4D9"/>
<text x="1154" y="223" font-size="12" fill="#E8EAF0" text-anchor="end" font-family="ui-monospace,Menlo,monospace">204</text>
<text x="250" y="254" font-size="12" fill="#E8EAF0">Speed</text>
<rect x="354" y="250" width="746" height="4" rx="2" fill="#23262F"/>
<rect x="354" y="250" width="373" height="4" rx="2" fill="#21D4D9"/>
<circle cx="727" cy="252" r="7" fill="#E8EAF0" stroke="#21D4D9"/>
<text x="1154" y="255" font-size="12" fill="#E8EAF0" text-anchor="end" font-family="ui-monospace,Menlo,monospace">128</text>
<text x="234" y="292" font-size="10" fill="#8A90A0" font-weight="700" letter-spacing="1">COLOR</text>
<rect x="234" y="302" width="936" height="118" rx="10" fill="#14161D" stroke="#23262F"/>
<rect x="250" y="314" width="48" height="28" rx="6" fill="#21D4D9" stroke="#ffffff" stroke-opacity="0.25"/>
<text x="308" y="332" font-size="11" fill="#8A90A0">preview</text>
<text x="250" y="364" font-size="12" fill="#E8EAF0">Hue</text>
<rect x="354" y="360" width="746" height="4" rx="2" fill="url(#hue)"/>
<circle cx="727" cy="362" r="7" fill="#E8EAF0" stroke="#21D4D9"/>
<text x="1154" y="365" font-size="12" fill="#E8EAF0" text-anchor="end" font-family="ui-monospace,Menlo,monospace">128</text>
<text x="250" y="392" font-size="12" fill="#E8EAF0">Saturation</text>
<rect x="354" y="388" width="746" height="4" rx="2" fill="#23262F"/>
<rect x="354" y="388" width="746" height="4" rx="2" fill="#21D4D9"/>
<circle cx="1100" cy="390" r="7" fill="#E8EAF0" stroke="#21D4D9"/>
<text x="1154" y="393" font-size="12" fill="#E8EAF0" text-anchor="end" font-family="ui-monospace,Menlo,monospace">255</text>
<rect x="234" y="556" width="92" height="28" rx="6" fill="#1A1C24" stroke="#23262F"/><text x="280" y="574" font-size="11" fill="#E8EAF0" text-anchor="middle">↻ Reload</text>
<rect x="1020" y="556" width="150" height="28" rx="6" fill="url(#accent)"/><text x="1095" y="574" font-size="11" fill="#0A0B0F" text-anchor="middle" font-weight="600">Save to keyboard</text>
</g>
</svg>